<?xml version="1.0" encoding="UTF-8" standalone="no"?>
<svg
   width="50"
   height="50"
   viewBox="0 0 50 50"
   version="1.1"
   id="svg25664"
   xml:space="preserve"
   sodipodi:docname="no_image_solid.svg"
   inkscape:version="1.2.2 (b0a8486541, 2022-12-01)"
   inkscape:export-filename="no_image_solid.png"
   inkscape:export-xdpi="192"
   inkscape:export-ydpi="192"
   xmlns:inkscape="http://www.inkscape.org/namespaces/inkscape"
   xmlns:sodipodi="http://sodipodi.sourceforge.net/DTD/sodipodi-0.dtd"
   xmlns="http://www.w3.org/2000/svg"
   xmlns:svg="http://www.w3.org/2000/svg"><sodipodi:namedview
     id="namedview15"
     pagecolor="#505050"
     bordercolor="#ffffff"
     borderopacity="1"
     inkscape:showpageshadow="0"
     inkscape:pageopacity="0"
     inkscape:pagecheckerboard="1"
     inkscape:deskcolor="#505050"
     showgrid="false"
     showguides="true"
     inkscape:zoom="5.6568543"
     inkscape:cx="-19.26866"
     inkscape:cy="36.327611"
     inkscape:window-width="1854"
     inkscape:window-height="1011"
     inkscape:window-x="66"
     inkscape:window-y="32"
     inkscape:window-maximized="1"
     inkscape:current-layer="svg25664" /><path
     fill-rule="evenodd"
     clip-rule="evenodd"
     d="M 4,38 V 13 L 25,0 46,13 V 38 L 25,50 Z M 6,36.84 V 15.294 L 24,25.58 V 47.125 Z M 26,47.125 V 25.58 L 44,15.295 V 36.839 Z M 6.943,13.53 25,23.848 43.057,13.53 25,2.352 Z"
     fill="#1ad3bb"
     id="path25655"
     clip-path="none"
     inkscape:label="cube" /><defs
     id="defs25662"><inkscape:path-effect
       effect="perspective-envelope"
       up_left_point="8.9818607,25.053313"
       up_right_point="21.028548,31.945901"
       down_left_point="9.0030067,31.506467"
       down_right_point="21.028548,38.426704"
       id="path-effect413"
       is_visible="true"
       lpeversion="1"
       deform_type="perspective"
       horizontal_mirror="false"
       vertical_mirror="false"
       overflow_perspective="false" /><inkscape:path-effect
       effect="perspective-envelope"
       up_left_point="29.50597,31.596209"
       up_right_point="41.557039,24.71121"
       down_left_point="29.509205,38.0659"
       down_right_point="41.557039,31.192013"
       id="path-effect405"
       is_visible="true"
       lpeversion="1"
       deform_type="perspective"
       horizontal_mirror="false"
       vertical_mirror="false"
       overflow_perspective="false" /><style
       id="style25681">
      .cls-1 {
        fill: #1e4c3d;
      }
    </style></defs><path
     id="path298"
     style="display:inline;fill:#1ad3bb;fill-opacity:1;stroke:none;stroke-width:0.403928;stroke-dasharray:none;stroke-opacity:1"
     d="m 41.557039,27.951925 c 0,1.789376 -1.453096,4.068908 -3.245023,5.091291 -0.379308,0.216414 -0.74317,0.359063 -1.081475,0.432521 -0.129869,0.02815 -0.256123,0.04631 -0.377797,0.05439 -0.428851,0.02868 -0.80325,-0.06606 -1.096713,-0.273355 -0.07179,-0.05068 -0.138779,-0.107942 -0.200462,-0.172084 -0.308408,-0.319499 -0.486541,-0.802355 -0.486709,-1.428437 -1.69e-4,-0.626115 0.177667,-1.312535 0.485859,-1.983951 0.06164,-0.13434 0.128588,-0.268344 0.200112,-0.400873 0.29334,-0.542462 0.667682,-1.064812 1.096784,-1.526061 0.12168,-0.131124 0.247945,-0.256934 0.37783,-0.377107 0.338351,-0.312927 0.702289,-0.585841 1.081698,-0.802605 1.792409,-1.024036 3.245896,-0.403366 3.245896,1.386275 z m -5.095448,5.962794 c -0.338169,0.312255 -0.701851,0.584697 -1.080928,0.800979 -0.301985,0.172297 -0.594086,0.29783 -0.871252,0.378773 -0.146161,0.04275 -0.288229,0.07331 -0.425238,0.09161 -1.14457,0.153653 -1.944526,-0.53029 -1.945044,-1.857146 -5.19e-4,-1.327001 0.79895,-2.924469 1.943203,-4.077809 0.137007,-0.138183 0.27908,-0.269873 0.425255,-0.394046 0.277194,-0.235361 0.569351,-0.443663 0.871417,-0.616239 0.379178,-0.216632 0.743228,-0.359645 1.081295,-0.433412 -0.350039,0.41055 -0.660762,0.856853 -0.918929,1.317867 -0.0708,0.126584 -0.137742,0.25409 -0.200347,0.382487 -0.384987,0.788665 -0.609739,1.602911 -0.60953,2.341083 2.09e-4,0.738127 0.225323,1.295406 0.610558,1.644164 0.06265,0.05685 0.129618,0.107874 0.200448,0.153565 0.258268,0.166277 0.569045,0.257626 0.919092,0.268129 z m -2.843568,1.688589 c -0.27704,0.235014 -0.568996,0.442948 -0.870813,0.61515 -1.788561,1.020223 -3.238729,0.39946 -3.239622,-1.387088 -8.94e-4,-1.786812 1.448215,-4.063473 3.237255,-5.085585 0.301898,-0.17248 0.593961,-0.2982 0.871125,-0.379321 -1.098827,1.234432 -1.842353,2.828521 -1.841808,4.171084 5.45e-4,1.342412 0.744865,2.086426 1.843863,2.06576 z"
     inkscape:path-effect="#path-effect405"
     inkscape:original-d="m 41.557039,27.774712 c 0,1.789509 -1.450771,3.24028 -3.24052,3.24028 -0.378944,0 -0.742479,-0.065 -1.080495,-0.184657 -0.129765,-0.04598 -0.255919,-0.09991 -0.377498,-0.161304 -0.428539,-0.216195 -0.802667,-0.524839 -1.095903,-0.899931 -0.07174,-0.09173 -0.138673,-0.187304 -0.200306,-0.286735 -0.308162,-0.495949 -0.486077,-1.080976 -0.486077,-1.707653 0,-0.626677 0.177915,-1.211945 0.486077,-1.707653 0.06163,-0.09919 0.128562,-0.195009 0.200065,-0.286735 0.293236,-0.375092 0.667365,-0.683736 1.096144,-0.89993 0.121579,-0.06163 0.247733,-0.115321 0.377498,-0.161304 0.338016,-0.119654 0.701551,-0.184657 1.080495,-0.184657 1.789749,0 3.24052,1.450771 3.24052,3.240279 z m -5.089456,3.055864 c -0.338016,0.119413 -0.701552,0.184416 -1.080495,0.184416 -0.301903,0 -0.593934,-0.04117 -0.87104,-0.11845 -0.146136,-0.04069 -0.28818,-0.09125 -0.425168,-0.151193 -1.144534,-0.500041 -1.944312,-1.641927 -1.944312,-2.970637 0,-1.328709 0.800019,-2.470595 1.944312,-2.970637 0.136988,-0.05995 0.279032,-0.110505 0.425168,-0.151192 0.277106,-0.07704 0.569137,-0.11845 0.87104,-0.11845 0.378943,0 0.74272,0.065 1.080495,0.184416 -0.349813,0.210658 -0.660383,0.479577 -0.918469,0.793277 -0.07078,0.08619 -0.13771,0.175508 -0.200306,0.268198 -0.384962,0.569137 -0.609824,1.255521 -0.609824,1.994388 0,0.738867 0.224862,1.425251 0.609824,1.994388 0.0626,0.09269 0.129525,0.182009 0.200306,0.268198 0.258086,0.31394 0.568656,0.582861 0.918469,0.793278 z m -2.842923,0.06621 c -0.277105,0.07704 -0.569137,0.11845 -0.871039,0.11845 -1.789509,-2.4e-4 -3.24028,-1.450771 -3.24028,-3.24052 0,-1.789749 1.450771,-3.240279 3.24028,-3.240279 0.301902,0 0.593934,0.04117 0.871039,0.11845 -1.099031,0.607176 -1.843196,1.777711 -1.843196,3.12207 0,1.344359 0.744165,2.514653 1.843196,3.121829 z"
     inkscape:label="R solid" /><path
     id="path409"
     style="display:inline;fill:#1ad3bb;fill-opacity:1;stroke:none;stroke-width:0.403928;stroke-dasharray:none;stroke-opacity:1"
     d="m 21.028548,35.189044 c 0,1.788635 -1.45644,2.399291 -3.250205,1.367049 -0.379372,-0.218315 -0.743251,-0.492467 -1.081547,-0.806322 -0.129847,-0.120509 -0.256079,-0.246852 -0.377734,-0.377991 -0.428716,-0.461935 -0.803066,-0.984605 -1.09663,-1.526946 -0.07182,-0.132639 -0.138834,-0.266348 -0.200564,-0.400857 -0.308633,-0.671324 -0.487341,-1.356775 -0.488448,-1.981904 -0.0011,-0.625342 0.175652,-1.107647 0.482867,-1.426135 0.06146,-0.06377 0.128239,-0.121142 0.199602,-0.171814 0.292756,-0.206793 0.666724,-0.300917 1.095749,-0.271326 0.121692,0.0081 0.247996,0.02669 0.377947,0.0551 0.338597,0.07415 0.702976,0.217647 1.083018,0.43509 1.79693,1.028125 3.255945,3.315672 3.255945,5.106053 z M 15.92845,35.30793 C 15.590843,35.232561 15.227801,35.088354 14.849417,34.870609 14.548064,34.697192 14.256578,34.488497 13.97999,34.252468 13.834154,34.128081 13.692398,33.996231 13.555681,33.857953 12.413982,32.704 11.614768,31.109171 11.611373,29.785372 c -0.0034,-1.324754 0.791282,-2.007338 1.932234,-1.852959 0.136698,0.01841 0.278489,0.0491 0.424412,0.09199 0.276772,0.08147 0.568618,0.20711 0.8705,0.379834 0.37905,0.216876 0.743164,0.490139 1.081443,0.803006 -0.349837,0.01022 -0.660161,0.101124 -0.917786,0.266784 -0.07063,0.04558 -0.137404,0.09648 -0.199828,0.153223 -0.383752,0.347938 -0.607124,0.904322 -0.605752,1.64155 0.0014,0.736931 0.227121,1.55022 0.612501,2.338438 0.06267,0.128321 0.129657,0.255768 0.20049,0.382312 0.258292,0.461113 0.568981,0.907574 0.918863,1.31838 z m -2.837193,-1.566598 c -0.275943,-0.08219 -0.566746,-0.208375 -0.867381,-0.381379 -1.780103,-1.024619 -3.2255965,-3.296099 -3.2314334,-5.077347 -0.00584,-1.782977 1.4327044,-2.403504 3.2159254,-1.383223 0.301162,0.172312 0.59266,0.380164 0.869414,0.615616 -1.095003,-0.02127 -1.83352,0.721824 -1.82995,2.062013 0.0036,1.339211 0.747291,2.930153 1.843425,4.16432 z"
     inkscape:path-effect="#path-effect413"
     inkscape:original-d="m 21.028548,35.18618 c 0,1.789509 -1.450771,3.24028 -3.24052,3.24028 -0.378944,0 -0.742479,-0.065 -1.080495,-0.184657 -0.129765,-0.04598 -0.255919,-0.09991 -0.377498,-0.161304 -0.428539,-0.216195 -0.802667,-0.524839 -1.095903,-0.899931 -0.07174,-0.09173 -0.138673,-0.187304 -0.200306,-0.286735 -0.308162,-0.495949 -0.486077,-1.080976 -0.486077,-1.707653 0,-0.626677 0.177915,-1.211945 0.486077,-1.707653 0.06163,-0.09919 0.128562,-0.195009 0.200065,-0.286735 0.293236,-0.375092 0.667365,-0.683736 1.096144,-0.89993 0.121579,-0.06163 0.247733,-0.115321 0.377498,-0.161304 0.338016,-0.119654 0.701551,-0.184657 1.080495,-0.184657 1.789749,0 3.24052,1.450771 3.24052,3.240279 z m -5.089456,3.055864 c -0.338016,0.119413 -0.701552,0.184416 -1.080495,0.184416 -0.301903,0 -0.593934,-0.04117 -0.87104,-0.11845 -0.146136,-0.04069 -0.28818,-0.09125 -0.425168,-0.151193 -1.144534,-0.500041 -1.944312,-1.641927 -1.944312,-2.970637 0,-1.328709 0.800019,-2.470595 1.944312,-2.970637 0.136988,-0.05995 0.279032,-0.110505 0.425168,-0.151192 0.277106,-0.07704 0.569137,-0.11845 0.87104,-0.11845 0.378943,0 0.74272,0.065 1.080495,0.184416 -0.349813,0.210658 -0.660383,0.479577 -0.918469,0.793277 -0.07078,0.08619 -0.13771,0.175508 -0.200306,0.268198 -0.384962,0.569137 -0.609824,1.255521 -0.609824,1.994388 0,0.738867 0.224862,1.425251 0.609824,1.994388 0.0626,0.09269 0.129525,0.182009 0.200306,0.268198 0.258086,0.31394 0.568656,0.582861 0.918469,0.793278 z m -2.842923,0.06621 c -0.277105,0.07704 -0.569137,0.11845 -0.871039,0.11845 -1.789509,-2.4e-4 -3.2402833,-1.450771 -3.2402833,-3.24052 0,-1.789749 1.4507743,-3.240279 3.2402833,-3.240279 0.301902,0 0.593934,0.04117 0.871039,0.11845 -1.099031,0.607176 -1.843196,1.777711 -1.843196,3.12207 0,1.344359 0.744165,2.514653 1.843196,3.121829 z"
     inkscape:label="L solid" /></svg>
